<?xml version="1.0" encoding="UTF-8"?>
<!-- Created with Inkscape (http://www.inkscape.org/) -->
<svg width="100" height="100" version="1.1" viewBox="0 0 26.458 26.458" xmlns="http://www.w3.org/2000/svg" xmlns:cc="http://creativecommons.org/ns#" xmlns:dc="http://purl.org/dc/elements/1.1/" xmlns:rdf="http://www.w3.org/1999/02/22-rdf-syntax-ns#">
 <metadata>
  <rdf:RDF>
   <cc:Work rdf:about="">
    <dc:format>image/svg+xml</dc:format>
    <dc:type rdf:resource="http://purl.org/dc/dcmitype/StillImage"/>
    <dc:title/>
   </cc:Work>
  </rdf:RDF>
 </metadata>
 <g transform="translate(0 -270.54)">
  <path d="m12.228 280.56c-0.95776-1.4923-1.9155-2.9846-2.9064-3.5637-0.99092-0.57911-2.0155-0.24501-2.849 0.51994s-1.4828 1.974-1.6834 3.1771c-0.20061 1.2031 0.044326 2.4055 0.93538 4.8113 0.89106 2.4058 2.4276 6.0133 3.9644 9.6215 5.0781-4.6995 10.157-9.3992 12.773-12.64 2.6169-3.2406 2.7728-5.0224 2.2049-6.0914s-1.8597-1.4253-3.1961-1.3585c-1.3364 0.0668-2.7171 0.55669-4.3028 1.5402-1.5857 0.9835-3.4536 2.5245-4.364 3.5099-0.91044 0.98541-1.0442 1.5648-1.1778 2.1439" fill="none" stroke="#ff0249" stroke-width=".26458px"/>
 </g>
</svg>
